<svg width="107" height="24" viewBox="0 0 107 24" fill="none" xmlns="http://www.w3.org/2000/svg">
<path d="M19 12V21H5V12" stroke="#1A162E" stroke-width="1.5" stroke-linecap="round" stroke-linejoin="round"/>
<path d="M21 8H3V12H21V8Z" stroke="#1A162E" stroke-width="1.5" stroke-linecap="round" stroke-linejoin="round"/>
<path d="M12 21V8" stroke="#1A162E" stroke-width="1.5" stroke-linecap="round" stroke-linejoin="round"/>
<path d="M12 8H8.14286C7.57454 8 7.02949 7.73661 6.62763 7.26777C6.22576 6.79893 6 6.16304 6 5.5C6 4.83696 6.22576 4.20107 6.62763 3.73223C7.02949 3.26339 7.57454 3 8.14286 3C11.1429 3 12 8 12 8Z" stroke="#1A162E" stroke-width="1.5" stroke-linecap="round" stroke-linejoin="round"/>
<path d="M12 8H15.8571C16.4255 8 16.9705 7.73661 17.3724 7.26777C17.7742 6.79893 18 6.16304 18 5.5C18 4.83696 17.7742 4.20107 17.3724 3.73223C16.9705 3.26339 16.4255 3 15.8571 3C12.8571 3 12 8 12 8Z" stroke="#1A162E" stroke-width="1.5" stroke-linecap="round" stroke-linejoin="round"/>
<path d="M39.265 11.245L42.73 16H44.23L40.6 11.035C41.53 10.915 42.295 10.57 42.91 9.985C43.525 9.4 43.825 8.635 43.825 7.675C43.825 6.7 43.48 5.875 42.775 5.23C42.085 4.585 41.065 4.255 39.7 4.255H35.635V16H36.865V11.245H39.265ZM36.865 5.41H39.625C41.68 5.41 42.58 6.4 42.58 7.72C42.58 8.38 42.325 8.95 41.83 9.415C41.335 9.88 40.585 10.12 39.595 10.12H36.865V5.41ZM52.9908 12.355C53.0058 12.28 53.0058 12.145 53.0058 11.965C53.0058 10.75 52.6758 9.775 52.0158 9.01C51.3558 8.245 50.4258 7.855 49.2258 7.855C48.1308 7.855 47.2008 8.26 46.4508 9.085C45.7008 9.91 45.3258 10.87 45.3258 11.98C45.3258 13.135 45.7158 14.125 46.4958 14.935C47.2758 15.73 48.2358 16.135 49.3908 16.135C50.8308 16.135 52.1058 15.385 52.7808 14.065L51.9108 13.495C51.4458 14.455 50.5008 15.1 49.3758 15.1C48.5958 15.1 47.9358 14.845 47.3958 14.32C46.8558 13.795 46.5558 13.135 46.5108 12.355H52.9908ZM46.5258 11.365C46.6308 10.675 46.9308 10.09 47.4408 9.61C47.9508 9.115 48.5508 8.875 49.2258 8.875C50.7258 8.875 51.6558 9.865 51.8208 11.365H46.5258ZM61.3071 16.075C61.3071 18.04 60.1221 18.985 58.4421 18.985C57.5571 18.985 56.8521 18.715 56.3871 18.235C55.9221 17.755 55.6971 17.425 55.4421 16.87L54.4971 17.425C55.2621 19.15 56.5821 20.005 58.4571 20.005C60.9321 20.005 62.4771 18.565 62.4771 16.03V7.99H61.3221V9.67C60.5121 8.455 59.4771 7.855 58.2021 7.855C57.1071 7.855 56.2071 8.26 55.5021 9.085C54.7971 9.91 54.4521 10.855 54.4521 11.95C54.4521 13.075 54.7971 14.05 55.4871 14.845C56.1771 15.64 57.0771 16.03 58.2021 16.03C59.5371 16.03 60.5721 15.43 61.3071 14.215V16.075ZM58.4421 15.01C57.5871 15.01 56.9121 14.725 56.4021 14.14C55.9071 13.555 55.6521 12.835 55.6521 11.98C55.6521 11.095 55.9071 10.36 56.4021 9.775C56.8971 9.19 57.5871 8.89 58.4421 8.89C59.2521 8.89 59.9271 9.19 60.4821 9.805C61.0371 10.42 61.3221 11.125 61.3221 11.935C61.3221 12.775 61.0521 13.495 60.4971 14.11C59.9571 14.71 59.2671 15.01 58.4421 15.01ZM64.8299 5.125C64.8299 5.605 65.2199 5.995 65.6999 5.995C66.1949 5.995 66.5849 5.605 66.5849 5.125C66.5849 4.63 66.1949 4.24 65.6999 4.24C65.2199 4.24 64.8299 4.63 64.8299 5.125ZM66.2999 7.99H65.1149V16H66.2999V7.99ZM74.2482 13.72C74.2482 13.225 74.0532 12.775 73.6782 12.4C73.2432 11.95 72.5382 11.62 71.5782 11.41C70.0932 11.095 69.7032 10.81 69.7032 10.15C69.7032 9.805 69.8682 9.52 70.1832 9.265C70.4982 9.01 70.8882 8.89 71.3232 8.89C72.1482 8.89 72.7782 9.34 73.1982 10.24L74.1582 9.715C73.6182 8.47 72.6732 7.855 71.3232 7.855C70.6032 7.855 69.9582 8.08 69.3882 8.53C68.8182 8.98 68.5332 9.55 68.5332 10.24C68.5332 10.705 68.6832 11.095 68.9682 11.44C69.4032 11.935 69.9582 12.19 71.0532 12.43C72.5082 12.775 73.0632 13.12 73.0632 13.795C73.0632 14.59 72.2682 15.1 71.3532 15.1C70.4082 15.1 69.6882 14.575 69.1932 13.54L68.2332 14.065C68.8482 15.445 69.8982 16.135 71.3682 16.135C72.1932 16.135 72.8832 15.91 73.4232 15.46C73.9782 14.995 74.2482 14.425 74.2482 13.72ZM79.0381 16.06C79.3831 16.06 79.6981 16.015 79.9531 15.94V14.965C79.7881 15.01 79.5481 15.025 79.2331 15.025C78.3631 15.025 77.9281 14.65 77.9281 13.9V9.025H79.9531V7.99H77.9281V5.68H76.7731V7.99H75.2881V9.025H76.7731V13.93C76.7731 15.355 77.5231 16.06 79.0381 16.06ZM81.9313 7.99V16H83.1013V12.085C83.1013 11.26 83.2963 10.57 83.7013 9.985C84.1063 9.4 84.7363 9.1 85.6063 9.1C85.7113 9.1 85.8613 9.115 86.0563 9.13V7.885C85.9963 7.87 85.8613 7.87 85.6663 7.87C84.6463 7.87 83.6413 8.425 83.0863 9.58V7.99H81.9313ZM87.3446 5.125C87.3446 5.605 87.7346 5.995 88.2146 5.995C88.7096 5.995 89.0996 5.605 89.0996 5.125C89.0996 4.63 88.7096 4.24 88.2146 4.24C87.7346 4.24 87.3446 4.63 87.3446 5.125ZM88.8146 7.99H87.6296V16H88.8146V7.99ZM98.5328 12.355C98.5478 12.28 98.5478 12.145 98.5478 11.965C98.5478 10.75 98.2178 9.775 97.5578 9.01C96.8978 8.245 95.9678 7.855 94.7678 7.855C93.6728 7.855 92.7428 8.26 91.9928 9.085C91.2428 9.91 90.8678 10.87 90.8678 11.98C90.8678 13.135 91.2578 14.125 92.0378 14.935C92.8178 15.73 93.7778 16.135 94.9328 16.135C96.3728 16.135 97.6478 15.385 98.3228 14.065L97.4528 13.495C96.9878 14.455 96.0428 15.1 94.9178 15.1C94.1378 15.1 93.4778 14.845 92.9378 14.32C92.3978 13.795 92.0978 13.135 92.0528 12.355H98.5328ZM92.0678 11.365C92.1728 10.675 92.4728 10.09 92.9828 9.61C93.4928 9.115 94.0928 8.875 94.7678 8.875C96.2678 8.875 97.1978 9.865 97.3628 11.365H92.0678ZM105.874 13.72C105.874 13.225 105.679 12.775 105.304 12.4C104.869 11.95 104.164 11.62 103.204 11.41C101.719 11.095 101.329 10.81 101.329 10.15C101.329 9.805 101.494 9.52 101.809 9.265C102.124 9.01 102.514 8.89 102.949 8.89C103.774 8.89 104.404 9.34 104.824 10.24L105.784 9.715C105.244 8.47 104.299 7.855 102.949 7.855C102.229 7.855 101.584 8.08 101.014 8.53C100.444 8.98 100.159 9.55 100.159 10.24C100.159 10.705 100.309 11.095 100.594 11.44C101.029 11.935 101.584 12.19 102.679 12.43C104.134 12.775 104.689 13.12 104.689 13.795C104.689 14.59 103.894 15.1 102.979 15.1C102.034 15.1 101.314 14.575 100.819 13.54L99.8591 14.065C100.474 15.445 101.524 16.135 102.994 16.135C103.819 16.135 104.509 15.91 105.049 15.46C105.604 14.995 105.874 14.425 105.874 13.72Z" fill="#1A162E"/>
</svg>
